<?xml version="1.0" encoding="utf-8" standalone="no"?>
<!DOCTYPE svg PUBLIC "-//W3C//DTD SVG 1.1//EN"
  "http://www.w3.org/Graphics/SVG/1.1/DTD/svg11.dtd">
<svg xmlns:xlink="http://www.w3.org/1999/xlink" width="432pt" height="288pt" viewBox="0 0 432 288" xmlns="http://www.w3.org/2000/svg" version="1.1">
 <metadata>
  <rdf:RDF xmlns:dc="http://purl.org/dc/elements/1.1/" xmlns:cc="http://creativecommons.org/ns#" xmlns:rdf="http://www.w3.org/1999/02/22-rdf-syntax-ns#">
   <cc:Work>
    <dc:type rdf:resource="http://purl.org/dc/dcmitype/StillImage"/>
    <dc:date>2022-08-19T12:37:40.577473</dc:date>
    <dc:format>image/svg+xml</dc:format>
    <dc:creator>
     <cc:Agent>
      <dc:title>Matplotlib v3.5.1, https://matplotlib.org/</dc:title>
     </cc:Agent>
    </dc:creator>
   </cc:Work>
  </rdf:RDF>
 </metadata>
 <defs>
  <style type="text/css">*{stroke-linejoin: round; stroke-linecap: butt}</style>
 </defs>
 <g id="figure_1">
  <g id="patch_1">
   <path d="M 0 288 
L 432 288 
L 432 0 
L 0 0 
L 0 288 
z
" style="fill: none"/>
  </g>
  <g id="patch_2">
   <path d="M 112.68 252 
L 330.12 252 
L 330.12 34.56 
L 112.68 34.56 
z
" style="fill: #ffffff"/>
  </g>
  <g id="pane3d_1">
   <g id="patch_3">
    <path d="M 129.09822 198.386264 
L 200.904009 138.197228 
L 199.90584 51.393878 
L 124.663773 106.302111 
" style="fill: #f2f2f2; opacity: 0.5; stroke: #f2f2f2; stroke-linejoin: miter"/>
   </g>
  </g>
  <g id="pane3d_2">
   <g id="patch_4">
    <path d="M 200.904009 138.197228 
L 316.12668 171.68791 
L 320.238571 81.894718 
L 199.90584 51.393878 
" style="fill: #e6e6e6; opacity: 0.5; stroke: #e6e6e6; stroke-linejoin: miter"/>
   </g>
  </g>
  <g id="pane3d_3">
   <g id="patch_5">
    <path d="M 129.09822 198.386264 
L 251.239879 238.27773 
L 316.12668 171.68791 
L 200.904009 138.197228 
" style="fill: #ececec; opacity: 0.5; stroke: #ececec; stroke-linejoin: miter"/>
   </g>
  </g>
  <g id="axis3d_1">
   <g id="line2d_1">
    <path d="M 129.09822 198.386264 
L 251.239879 238.27773 
" style="fill: none; stroke: #000000; stroke-width: 0.8; stroke-linecap: square"/>
   </g>
   <g id="text_1">
    <!-- x -->
    <g transform="translate(169.277868 255.903264)scale(0.1 -0.1)">
     <defs>
      <path id="DejaVuSans-78" d="M 3513 3500 
L 2247 1797 
L 3578 0 
L 2900 0 
L 1881 1375 
L 863 0 
L 184 0 
L 1544 1831 
L 300 3500 
L 978 3500 
L 1906 2253 
L 2834 3500 
L 3513 3500 
z
" transform="scale(0.015625)"/>
     </defs>
     <use xlink:href="#DejaVuSans-78"/>
    </g>
   </g>
   <g id="Line3DCollection_1">
    <path d="M 132.716699 199.56806 
L 204.332166 139.193658 
L 203.478708 52.299496 
" style="fill: none; stroke: #b0b0b0; stroke-width: 0.8"/>
    <path d="M 149.609861 205.085366 
L 220.32491 143.842117 
L 220.152471 56.525809 
" style="fill: none; stroke: #b0b0b0; stroke-width: 0.8"/>
    <path d="M 166.757577 210.685811 
L 236.538648 148.554811 
L 237.06661 60.81305 
" style="fill: none; stroke: #b0b0b0; stroke-width: 0.8"/>
    <path d="M 184.165644 216.371285 
L 252.977992 153.333079 
L 254.22636 65.162546 
" style="fill: none; stroke: #b0b0b0; stroke-width: 0.8"/>
    <path d="M 201.840038 222.143742 
L 269.647685 158.178301 
L 271.637111 69.575664 
" style="fill: none; stroke: #b0b0b0; stroke-width: 0.8"/>
    <path d="M 219.786916 228.005192 
L 286.552602 163.091893 
L 289.304408 74.053809 
" style="fill: none; stroke: #b0b0b0; stroke-width: 0.8"/>
    <path d="M 238.012629 233.95771 
L 303.697757 168.075312 
L 307.233966 78.598429 
" style="fill: none; stroke: #b0b0b0; stroke-width: 0.8"/>
   </g>
   <g id="xtick_1">
    <g id="line2d_2">
     <path d="M 133.340238 199.042394 
L 131.46695 200.621643 
" style="fill: none; stroke: #000000; stroke-width: 0.8; stroke-linecap: square"/>
    </g>
    <g id="text_2">
     <!-- −6 -->
     <g transform="translate(117.805749 222.858303)scale(0.1 -0.1)">
      <defs>
       <path id="DejaVuSans-2212" d="M 678 2272 
L 4684 2272 
L 4684 1741 
L 678 1741 
L 678 2272 
z
" transform="scale(0.015625)"/>
       <path id="DejaVuSans-36" d="M 2113 2584 
Q 1688 2584 1439 2293 
Q 1191 2003 1191 1497 
Q 1191 994 1439 701 
Q 1688 409 2113 409 
Q 2538 409 2786 701 
Q 3034 994 3034 1497 
Q 3034 2003 2786 2293 
Q 2538 2584 2113 2584 
z
M 3366 4563 
L 3366 3988 
Q 3128 4100 2886 4159 
Q 2644 4219 2406 4219 
Q 1781 4219 1451 3797 
Q 1122 3375 1075 2522 
Q 1259 2794 1537 2939 
Q 1816 3084 2150 3084 
Q 2853 3084 3261 2657 
Q 3669 2231 3669 1497 
Q 3669 778 3244 343 
Q 2819 -91 2113 -91 
Q 1303 -91 875 529 
Q 447 1150 447 2328 
Q 447 3434 972 4092 
Q 1497 4750 2381 4750 
Q 2619 4750 2861 4703 
Q 3103 4656 3366 4563 
z
" transform="scale(0.015625)"/>
      </defs>
      <use xlink:href="#DejaVuSans-2212"/>
      <use xlink:href="#DejaVuSans-36" x="83.789062"/>
     </g>
    </g>
   </g>
   <g id="xtick_2">
    <g id="line2d_3">
     <path d="M 150.225934 204.551813 
L 148.375057 206.154777 
" style="fill: none; stroke: #000000; stroke-width: 0.8; stroke-linecap: square"/>
    </g>
    <g id="text_3">
     <!-- −4 -->
     <g transform="translate(134.719636 228.518756)scale(0.1 -0.1)">
      <defs>
       <path id="DejaVuSans-34" d="M 2419 4116 
L 825 1625 
L 2419 1625 
L 2419 4116 
z
M 2253 4666 
L 3047 4666 
L 3047 1625 
L 3713 1625 
L 3713 1100 
L 3047 1100 
L 3047 0 
L 2419 0 
L 2419 1100 
L 313 1100 
L 313 1709 
L 2253 4666 
z
" transform="scale(0.015625)"/>
      </defs>
      <use xlink:href="#DejaVuSans-2212"/>
      <use xlink:href="#DejaVuSans-34" x="83.789062"/>
     </g>
    </g>
   </g>
   <g id="xtick_3">
    <g id="line2d_4">
     <path d="M 167.365887 210.144189 
L 165.538312 211.771408 
" style="fill: none; stroke: #000000; stroke-width: 0.8; stroke-linecap: square"/>
    </g>
    <g id="text_4">
     <!-- −2 -->
     <g transform="translate(151.889564 234.264897)scale(0.1 -0.1)">
      <defs>
       <path id="DejaVuSans-32" d="M 1228 531 
L 3431 531 
L 3431 0 
L 469 0 
L 469 531 
Q 828 903 1448 1529 
Q 2069 2156 2228 2338 
Q 2531 2678 2651 2914 
Q 2772 3150 2772 3378 
Q 2772 3750 2511 3984 
Q 2250 4219 1831 4219 
Q 1534 4219 1204 4116 
Q 875 4013 500 3803 
L 500 4441 
Q 881 4594 1212 4672 
Q 1544 4750 1819 4750 
Q 2544 4750 2975 4387 
Q 3406 4025 3406 3419 
Q 3406 3131 3298 2873 
Q 3191 2616 2906 2266 
Q 2828 2175 2409 1742 
Q 1991 1309 1228 531 
z
" transform="scale(0.015625)"/>
      </defs>
      <use xlink:href="#DejaVuSans-2212"/>
      <use xlink:href="#DejaVuSans-32" x="83.789062"/>
     </g>
    </g>
   </g>
   <g id="xtick_4">
    <g id="line2d_5">
     <path d="M 184.765884 215.821413 
L 182.962535 217.47344 
" style="fill: none; stroke: #000000; stroke-width: 0.8; stroke-linecap: square"/>
    </g>
    <g id="text_5">
     <!-- 0 -->
     <g transform="translate(173.511237 240.098686)scale(0.1 -0.1)">
      <defs>
       <path id="DejaVuSans-30" d="M 2034 4250 
Q 1547 4250 1301 3770 
Q 1056 3291 1056 2328 
Q 1056 1369 1301 889 
Q 1547 409 2034 409 
Q 2525 409 2770 889 
Q 3016 1369 3016 2328 
Q 3016 3291 2770 3770 
Q 2525 4250 2034 4250 
z
M 2034 4750 
Q 2819 4750 3233 4129 
Q 3647 3509 3647 2328 
Q 3647 1150 3233 529 
Q 2819 -91 2034 -91 
Q 1250 -91 836 529 
Q 422 1150 422 2328 
Q 422 3509 836 4129 
Q 1250 4750 2034 4750 
z
" transform="scale(0.015625)"/>
      </defs>
      <use xlink:href="#DejaVuSans-30"/>
     </g>
    </g>
   </g>
   <g id="xtick_5">
    <g id="line2d_6">
     <path d="M 202.431888 221.585428 
L 200.653724 223.262835 
" style="fill: none; stroke: #000000; stroke-width: 0.8; stroke-linecap: square"/>
    </g>
    <g id="text_6">
     <!-- 2 -->
     <g transform="translate(191.211005 246.022145)scale(0.1 -0.1)">
      <use xlink:href="#DejaVuSans-32"/>
     </g>
    </g>
   </g>
   <g id="xtick_6">
    <g id="line2d_7">
     <path d="M 220.370046 227.438241 
L 218.618061 229.141618 
" style="fill: none; stroke: #000000; stroke-width: 0.8; stroke-linecap: square"/>
    </g>
    <g id="text_7">
     <!-- 4 -->
     <g transform="translate(209.184937 252.037356)scale(0.1 -0.1)">
      <use xlink:href="#DejaVuSans-34"/>
     </g>
    </g>
   </g>
   <g id="xtick_7">
    <g id="line2d_8">
     <path d="M 238.586696 233.381919 
L 236.861921 235.111874 
" style="fill: none; stroke: #000000; stroke-width: 0.8; stroke-linecap: square"/>
    </g>
    <g id="text_8">
     <!-- 6 -->
     <g transform="translate(227.439454 258.146469)scale(0.1 -0.1)">
      <use xlink:href="#DejaVuSans-36"/>
     </g>
    </g>
   </g>
  </g>
  <g id="axis3d_2">
   <g id="line2d_9">
    <path d="M 316.12668 171.68791 
L 251.239879 238.27773 
" style="fill: none; stroke: #000000; stroke-width: 0.8; stroke-linecap: square"/>
   </g>
   <g id="text_9">
    <!-- y -->
    <g transform="translate(309.154082 234.270788)scale(0.1 -0.1)">
     <defs>
      <path id="DejaVuSans-79" d="M 2059 -325 
Q 1816 -950 1584 -1140 
Q 1353 -1331 966 -1331 
L 506 -1331 
L 506 -850 
L 844 -850 
Q 1081 -850 1212 -737 
Q 1344 -625 1503 -206 
L 1606 56 
L 191 3500 
L 800 3500 
L 1894 763 
L 2988 3500 
L 3597 3500 
L 2059 -325 
z
" transform="scale(0.015625)"/>
     </defs>
     <use xlink:href="#DejaVuSans-79"/>
    </g>
   </g>
   <g id="Line3DCollection_2">
    <path d="M 133.079581 100.160638 
L 137.102635 191.676805 
L 258.501436 230.825586 
" style="fill: none; stroke: #b0b0b0; stroke-width: 0.8"/>
    <path d="M 147.078066 89.945181 
L 150.431876 180.503971 
L 270.577768 218.432298 
" style="fill: none; stroke: #b0b0b0; stroke-width: 0.8"/>
    <path d="M 160.635614 80.0515 
L 163.359212 169.668021 
L 282.271063 206.432101 
" style="fill: none; stroke: #b0b0b0; stroke-width: 0.8"/>
    <path d="M 173.772737 70.464626 
L 175.902551 159.153946 
L 293.59926 194.806585 
" style="fill: none; stroke: #b0b0b0; stroke-width: 0.8"/>
    <path d="M 186.508692 61.170506 
L 188.078751 148.947613 
L 304.579195 183.53847 
" style="fill: none; stroke: #b0b0b0; stroke-width: 0.8"/>
   </g>
   <g id="xtick_8">
    <g id="line2d_10">
     <path d="M 257.478596 230.49574 
L 260.549752 231.486129 
" style="fill: none; stroke: #000000; stroke-width: 0.8; stroke-linecap: square"/>
    </g>
    <g id="text_10">
     <!-- −4 -->
     <g transform="translate(263.967219 251.797528)scale(0.1 -0.1)">
      <use xlink:href="#DejaVuSans-2212"/>
      <use xlink:href="#DejaVuSans-34" x="83.789062"/>
     </g>
    </g>
   </g>
   <g id="xtick_9">
    <g id="line2d_11">
     <path d="M 269.566308 218.112995 
L 272.603254 219.071715 
" style="fill: none; stroke: #000000; stroke-width: 0.8; stroke-linecap: square"/>
    </g>
    <g id="text_11">
     <!-- −2 -->
     <g transform="translate(275.845217 239.179674)scale(0.1 -0.1)">
      <use xlink:href="#DejaVuSans-2212"/>
      <use xlink:href="#DejaVuSans-32" x="83.789062"/>
     </g>
    </g>
   </g>
   <g id="xtick_10">
    <g id="line2d_12">
     <path d="M 281.27078 206.122843 
L 284.274124 207.051389 
" style="fill: none; stroke: #000000; stroke-width: 0.8; stroke-linecap: square"/>
    </g>
    <g id="text_12">
     <!-- 0 -->
     <g transform="translate(291.536047 226.962316)scale(0.1 -0.1)">
      <use xlink:href="#DejaVuSans-30"/>
     </g>
    </g>
   </g>
   <g id="xtick_11">
    <g id="line2d_13">
     <path d="M 292.609955 194.506905 
L 295.580298 195.40668 
" style="fill: none; stroke: #000000; stroke-width: 0.8; stroke-linecap: square"/>
    </g>
    <g id="text_13">
     <!-- 2 -->
     <g transform="translate(302.677689 215.126684)scale(0.1 -0.1)">
      <use xlink:href="#DejaVuSans-32"/>
     </g>
    </g>
   </g>
   <g id="xtick_12">
    <g id="line2d_14">
     <path d="M 303.600672 183.247931 
L 306.538607 184.120251 
" style="fill: none; stroke: #000000; stroke-width: 0.8; stroke-linecap: square"/>
    </g>
    <g id="text_14">
     <!-- 4 -->
     <g transform="translate(313.47657 203.655164)scale(0.1 -0.1)">
      <use xlink:href="#DejaVuSans-34"/>
     </g>
    </g>
   </g>
  </g>
  <g id="axis3d_3">
   <g id="line2d_15">
    <path d="M 316.12668 171.68791 
L 320.238571 81.894718 
" style="fill: none; stroke: #000000; stroke-width: 0.8; stroke-linecap: square"/>
   </g>
   <g id="text_15">
    <!-- z -->
    <g transform="translate(355.829279 125.132978)scale(0.1 -0.1)">
     <defs>
      <path id="DejaVuSans-7a" d="M 353 3500 
L 3084 3500 
L 3084 2975 
L 922 459 
L 3084 459 
L 3084 0 
L 275 0 
L 275 525 
L 2438 3041 
L 353 3041 
L 353 3500 
z
" transform="scale(0.015625)"/>
     </defs>
     <use xlink:href="#DejaVuSans-7a"/>
    </g>
   </g>
   <g id="Line3DCollection_3">
    <path d="M 316.377812 166.203837 
L 200.842925 132.88524 
L 128.827816 192.771169 
" style="fill: none; stroke: #b0b0b0; stroke-width: 0.8"/>
    <path d="M 317.249366 147.171322 
L 200.631056 114.46058 
L 127.888949 173.274973 
" style="fill: none; stroke: #b0b0b0; stroke-width: 0.8"/>
    <path d="M 318.137584 127.774911 
L 200.415332 95.700609 
L 126.93144 153.391677 
" style="fill: none; stroke: #b0b0b0; stroke-width: 0.8"/>
    <path d="M 319.042948 108.004065 
L 200.195645 76.59609 
L 125.954728 133.109636 
" style="fill: none; stroke: #b0b0b0; stroke-width: 0.8"/>
    <path d="M 319.96596 87.847837 
L 199.971886 57.137443 
L 124.958232 112.416735 
" style="fill: none; stroke: #b0b0b0; stroke-width: 0.8"/>
   </g>
   <g id="xtick_13">
    <g id="line2d_16">
     <path d="M 315.408032 165.924166 
L 318.319685 166.763845 
" style="fill: none; stroke: #000000; stroke-width: 0.8; stroke-linecap: square"/>
    </g>
    <g id="text_16">
     <!-- −2 -->
     <g transform="translate(327.291906 171.212092)scale(0.1 -0.1)">
      <use xlink:href="#DejaVuSans-2212"/>
      <use xlink:href="#DejaVuSans-32" x="83.789062"/>
     </g>
    </g>
   </g>
   <g id="xtick_14">
    <g id="line2d_17">
     <path d="M 316.270057 146.896632 
L 319.210341 147.721364 
" style="fill: none; stroke: #000000; stroke-width: 0.8; stroke-linecap: square"/>
    </g>
    <g id="text_17">
     <!-- −1 -->
     <g transform="translate(328.332732 152.225782)scale(0.1 -0.1)">
      <defs>
       <path id="DejaVuSans-31" d="M 794 531 
L 1825 531 
L 1825 4091 
L 703 3866 
L 703 4441 
L 1819 4666 
L 2450 4666 
L 2450 531 
L 3481 531 
L 3481 0 
L 794 0 
L 794 531 
z
" transform="scale(0.015625)"/>
      </defs>
      <use xlink:href="#DejaVuSans-2212"/>
      <use xlink:href="#DejaVuSans-31" x="83.789062"/>
     </g>
    </g>
   </g>
   <g id="xtick_15">
    <g id="line2d_18">
     <path d="M 317.148557 127.505443 
L 320.118041 128.314501 
" style="fill: none; stroke: #000000; stroke-width: 0.8; stroke-linecap: square"/>
    </g>
    <g id="text_18">
     <!-- 0 -->
     <g transform="translate(333.583227 132.877818)scale(0.1 -0.1)">
      <use xlink:href="#DejaVuSans-30"/>
     </g>
    </g>
   </g>
   <g id="xtick_16">
    <g id="line2d_19">
     <path d="M 318.04401 107.740074 
L 321.043277 108.532695 
" style="fill: none; stroke: #000000; stroke-width: 0.8; stroke-linecap: square"/>
    </g>
    <g id="text_19">
     <!-- 1 -->
     <g transform="translate(334.664276 113.157768)scale(0.1 -0.1)">
      <use xlink:href="#DejaVuSans-31"/>
     </g>
    </g>
   </g>
   <g id="xtick_17">
    <g id="line2d_20">
     <path d="M 318.956909 87.589588 
L 321.986563 88.364975 
" style="fill: none; stroke: #000000; stroke-width: 0.8; stroke-linecap: square"/>
    </g>
    <g id="text_20">
     <!-- 2 -->
     <g transform="translate(335.766317 93.054794)scale(0.1 -0.1)">
      <use xlink:href="#DejaVuSans-32"/>
     </g>
    </g>
   </g>
  </g>
  <g id="axes_1">
   <g id="line2d_21">
    <path d="M 169.39722 127.977344 
L 275.483526 158.763365 
" clip-path="url(#p99776f8b26)" style="fill: none; stroke: #000000; stroke-width: 1.5; stroke-linecap: square"/>
   </g>
   <g id="line2d_22">
    <path d="M 188.095064 166.48877 
L 249.471059 113.727933 
" clip-path="url(#p99776f8b26)" style="fill: none; stroke: #000000; stroke-width: 1.5; stroke-linecap: square"/>
   </g>
   <g id="line2d_23">
    <path d="M 217.012178 180.705988 
L 216.720453 101.250153 
" clip-path="url(#p99776f8b26)" style="fill: none; stroke: #000000; stroke-width: 1.5; stroke-linecap: square"/>
   </g>
   <g id="line2d_24">
    <path d="M 294.17882 115.630156 
L 249.654386 123.901468 
" clip-path="url(#p99776f8b26)" style="fill: none; stroke: #0000ff; stroke-width: 1.5; stroke-linecap: square"/>
   </g>
   <g id="line2d_25">
    <path d="M 249.654386 123.901468 
L 237.956659 113.768044 
" clip-path="url(#p99776f8b26)" style="fill: none; stroke: #0000ff; stroke-width: 1.5; stroke-linecap: square"/>
   </g>
   <g id="line2d_26">
    <path d="M 237.956659 113.768044 
L 238.537816 94.137287 
" clip-path="url(#p99776f8b26)" style="fill: none; stroke: #0000ff; stroke-width: 1.5; stroke-linecap: square"/>
   </g>
   <g id="line2d_27">
    <path d="M 238.537816 94.137287 
L 230.042134 91.865505 
" clip-path="url(#p99776f8b26)" style="fill: none; stroke: #0000ff; stroke-width: 1.5; stroke-linecap: square"/>
   </g>
   <g id="line2d_28">
    <path d="M 230.042134 91.865505 
L 215.603426 94.404045 
" clip-path="url(#p99776f8b26)" style="fill: none; stroke: #0000ff; stroke-width: 1.5; stroke-linecap: square"/>
   </g>
   <g id="line2d_29">
    <path d="M 215.603426 94.404045 
L 207.186597 92.130349 
" clip-path="url(#p99776f8b26)" style="fill: none; stroke: #0000ff; stroke-width: 1.5; stroke-linecap: square"/>
   </g>
   <g id="line2d_30">
    <path d="M 207.186597 92.130349 
L 192.649679 94.671027 
" clip-path="url(#p99776f8b26)" style="fill: none; stroke: #0000ff; stroke-width: 1.5; stroke-linecap: square"/>
   </g>
   <g id="line2d_31">
    <path d="M 192.649679 94.671027 
L 186.37416 99.542985 
" clip-path="url(#p99776f8b26)" style="fill: none; stroke: #0000ff; stroke-width: 1.5; stroke-linecap: square"/>
   </g>
   <g id="line2d_32">
    <path d="M 186.37416 99.542985 
L 211.880962 106.577072 
" clip-path="url(#p99776f8b26)" style="fill: none; stroke: #0000ff; stroke-width: 1.5; stroke-linecap: square"/>
   </g>
   <g id="line2d_33">
    <path d="M 211.880962 106.577072 
L 180.001279 104.490529 
" clip-path="url(#p99776f8b26)" style="fill: none; stroke: #0000ff; stroke-width: 1.5; stroke-linecap: square"/>
   </g>
   <g id="line2d_34">
    <path d="M 180.001279 104.490529 
L 182.053808 111.916509 
" clip-path="url(#p99776f8b26)" style="fill: none; stroke: #0000ff; stroke-width: 1.5; stroke-linecap: square"/>
   </g>
   <g id="line2d_35">
    <path d="M 182.053808 111.916509 
L 205.637308 111.634782 
" clip-path="url(#p99776f8b26)" style="fill: none; stroke: #0000ff; stroke-width: 1.5; stroke-linecap: square"/>
   </g>
   <g id="line2d_36">
    <path d="M 205.637308 111.634782 
L 208.012438 119.227738 
" clip-path="url(#p99776f8b26)" style="fill: none; stroke: #0000ff; stroke-width: 1.5; stroke-linecap: square"/>
   </g>
   <g id="line2d_37">
    <path d="M 208.012438 119.227738 
L 197.429106 137.857095 
" clip-path="url(#p99776f8b26)" style="fill: none; stroke: #0000ff; stroke-width: 1.5; stroke-linecap: square"/>
   </g>
   <g id="line2d_38">
    <path d="M 197.429106 137.857095 
L 181.790949 140.780592 
" clip-path="url(#p99776f8b26)" style="fill: none; stroke: #0000ff; stroke-width: 1.5; stroke-linecap: square"/>
   </g>
   <g id="line2d_39">
    <path d="M 181.790949 140.780592 
L 199.801419 146.079031 
" clip-path="url(#p99776f8b26)" style="fill: none; stroke: #0000ff; stroke-width: 1.5; stroke-linecap: square"/>
   </g>
   <g id="line2d_40">
    <path d="M 199.801419 146.079031 
L 215.482925 143.109832 
" clip-path="url(#p99776f8b26)" style="fill: none; stroke: #0000ff; stroke-width: 1.5; stroke-linecap: square"/>
   </g>
   <g id="line2d_41">
    <path d="M 215.482925 143.109832 
L 212.933183 134.958665 
" clip-path="url(#p99776f8b26)" style="fill: none; stroke: #0000ff; stroke-width: 1.5; stroke-linecap: square"/>
   </g>
   <g id="line2d_42">
    <path d="M 212.933183 134.958665 
L 237.338265 134.656619 
" clip-path="url(#p99776f8b26)" style="fill: none; stroke: #0000ff; stroke-width: 1.5; stroke-linecap: square"/>
   </g>
   <g id="line2d_43">
    <path d="M 237.338265 134.656619 
L 267.730023 128.938789 
" clip-path="url(#p99776f8b26)" style="fill: none; stroke: #0000ff; stroke-width: 1.5; stroke-linecap: square"/>
   </g>
   <g id="line2d_44">
    <path d="M 267.730023 128.938789 
L 294.17882 115.630156 
" clip-path="url(#p99776f8b26)" style="fill: none; stroke: #0000ff; stroke-width: 1.5; stroke-linecap: square"/>
   </g>
   <g id="Path3DCollection_1">
    <defs>
     <path id="m2952453b1a" d="M -2.236068 2.236068 
L 2.236068 -2.236068 
M -2.236068 -2.236068 
L 2.236068 2.236068 
" style="stroke: #000000; stroke-width: 1.5"/>
    </defs>
    <g clip-path="url(#p99776f8b26)">
     <use xlink:href="#m2952453b1a" x="216.869163" y="141.753601" style="stroke: #000000; stroke-width: 1.5"/>
    </g>
   </g>
   <g id="Path3DCollection_2">
    <defs>
     <path id="C0_0_406696d741" d="M 0 2.236068 
C 0.593012 2.236068 1.161816 2.000462 1.581139 1.581139 
C 2.000462 1.161816 2.236068 0.593012 2.236068 -0 
C 2.236068 -0.593012 2.000462 -1.161816 1.581139 -1.581139 
C 1.161816 -2.000462 0.593012 -2.236068 0 -2.236068 
C -0.593012 -2.236068 -1.161816 -2.000462 -1.581139 -1.581139 
C -2.000462 -1.161816 -2.236068 -0.593012 -2.236068 0 
C -2.236068 0.593012 -2.000462 1.161816 -1.581139 1.581139 
C -1.161816 2.000462 -0.593012 2.236068 0 2.236068 
z
"/>
    </defs>
    <g clip-path="url(#p99776f8b26)">
     <use xlink:href="#C0_0_406696d741" x="230.042134" y="91.865505" style="fill: #0000ff; fill-opacity: 0.3; stroke: #0000ff; stroke-opacity: 0.3"/>
    </g>
    <g clip-path="url(#p99776f8b26)">
     <use xlink:href="#C0_0_406696d741" x="207.186597" y="92.130349" style="fill: #0000ff; fill-opacity: 0.30342; stroke: #0000ff; stroke-opacity: 0.30342"/>
    </g>
    <g clip-path="url(#p99776f8b26)">
     <use xlink:href="#C0_0_406696d741" x="238.537816" y="94.137287" style="fill: #0000ff; fill-opacity: 0.329333; stroke: #0000ff; stroke-opacity: 0.329333"/>
    </g>
    <g clip-path="url(#p99776f8b26)">
     <use xlink:href="#C0_0_406696d741" x="215.603426" y="94.404045" style="fill: #0000ff; fill-opacity: 0.332777; stroke: #0000ff; stroke-opacity: 0.332777"/>
    </g>
    <g clip-path="url(#p99776f8b26)">
     <use xlink:href="#C0_0_406696d741" x="192.649679" y="94.671027" style="fill: #0000ff; fill-opacity: 0.336225; stroke: #0000ff; stroke-opacity: 0.336225"/>
    </g>
    <g clip-path="url(#p99776f8b26)">
     <use xlink:href="#C0_0_406696d741" x="186.37416" y="99.542985" style="fill: #0000ff; fill-opacity: 0.399131; stroke: #0000ff; stroke-opacity: 0.399131"/>
    </g>
    <g clip-path="url(#p99776f8b26)">
     <use xlink:href="#C0_0_406696d741" x="180.001279" y="104.490529" style="fill: #0000ff; fill-opacity: 0.463013; stroke: #0000ff; stroke-opacity: 0.463013"/>
    </g>
    <g clip-path="url(#p99776f8b26)">
     <use xlink:href="#C0_0_406696d741" x="211.880962" y="106.577072" style="fill: #0000ff; fill-opacity: 0.489954; stroke: #0000ff; stroke-opacity: 0.489954"/>
    </g>
    <g clip-path="url(#p99776f8b26)">
     <use xlink:href="#C0_0_406696d741" x="205.637308" y="111.634782" style="fill: #0000ff; fill-opacity: 0.555259; stroke: #0000ff; stroke-opacity: 0.555259"/>
    </g>
    <g clip-path="url(#p99776f8b26)">
     <use xlink:href="#C0_0_406696d741" x="182.053808" y="111.916509" style="fill: #0000ff; fill-opacity: 0.558897; stroke: #0000ff; stroke-opacity: 0.558897"/>
    </g>
    <g clip-path="url(#p99776f8b26)">
     <use xlink:href="#C0_0_406696d741" x="237.956659" y="113.768044" style="fill: #0000ff; fill-opacity: 0.582804; stroke: #0000ff; stroke-opacity: 0.582804"/>
    </g>
    <g clip-path="url(#p99776f8b26)">
     <use xlink:href="#C0_0_406696d741" x="294.17882" y="115.630156" style="fill: #0000ff; fill-opacity: 0.606847; stroke: #0000ff; stroke-opacity: 0.606847"/>
    </g>
    <g clip-path="url(#p99776f8b26)">
     <use xlink:href="#C0_0_406696d741" x="208.012438" y="119.227738" style="fill: #0000ff; fill-opacity: 0.653299; stroke: #0000ff; stroke-opacity: 0.653299"/>
    </g>
    <g clip-path="url(#p99776f8b26)">
     <use xlink:href="#C0_0_406696d741" x="249.654386" y="123.901468" style="fill: #0000ff; fill-opacity: 0.713645; stroke: #0000ff; stroke-opacity: 0.713645"/>
    </g>
    <g clip-path="url(#p99776f8b26)">
     <use xlink:href="#C0_0_406696d741" x="267.730023" y="128.938789" style="fill: #0000ff; fill-opacity: 0.778687; stroke: #0000ff; stroke-opacity: 0.778687"/>
    </g>
    <g clip-path="url(#p99776f8b26)">
     <use xlink:href="#C0_0_406696d741" x="237.338265" y="134.656619" style="fill: #0000ff; fill-opacity: 0.852515; stroke: #0000ff; stroke-opacity: 0.852515"/>
    </g>
    <g clip-path="url(#p99776f8b26)">
     <use xlink:href="#C0_0_406696d741" x="212.933183" y="134.958665" style="fill: #0000ff; fill-opacity: 0.856415; stroke: #0000ff; stroke-opacity: 0.856415"/>
    </g>
    <g clip-path="url(#p99776f8b26)">
     <use xlink:href="#C0_0_406696d741" x="197.429106" y="137.857095" style="fill: #0000ff; fill-opacity: 0.893839; stroke: #0000ff; stroke-opacity: 0.893839"/>
    </g>
    <g clip-path="url(#p99776f8b26)">
     <use xlink:href="#C0_0_406696d741" x="181.790949" y="140.780592" style="fill: #0000ff; fill-opacity: 0.931587; stroke: #0000ff; stroke-opacity: 0.931587"/>
    </g>
    <g clip-path="url(#p99776f8b26)">
     <use xlink:href="#C0_0_406696d741" x="215.482925" y="143.109832" style="fill: #0000ff; fill-opacity: 0.961662; stroke: #0000ff; stroke-opacity: 0.961662"/>
    </g>
    <g clip-path="url(#p99776f8b26)">
     <use xlink:href="#C0_0_406696d741" x="199.801419" y="146.079031" style="fill: #0000ff; stroke: #0000ff"/>
    </g>
   </g>
  </g>
 </g>
 <defs>
  <clipPath id="p99776f8b26">
   <rect x="112.68" y="34.56" width="217.44" height="217.44"/>
  </clipPath>
 </defs>
</svg>
