<?xml version="1.0" encoding="utf-8" standalone="no"?>
<!DOCTYPE svg PUBLIC "-//W3C//DTD SVG 1.1//EN"
  "http://www.w3.org/Graphics/SVG/1.1/DTD/svg11.dtd">
<svg xmlns:xlink="http://www.w3.org/1999/xlink" width="432pt" height="288pt" viewBox="0 0 432 288" xmlns="http://www.w3.org/2000/svg" version="1.1">
 <metadata>
  <rdf:RDF xmlns:dc="http://purl.org/dc/elements/1.1/" xmlns:cc="http://creativecommons.org/ns#" xmlns:rdf="http://www.w3.org/1999/02/22-rdf-syntax-ns#">
   <cc:Work>
    <dc:type rdf:resource="http://purl.org/dc/dcmitype/StillImage"/>
    <dc:date>2022-08-19T12:37:40.896464</dc:date>
    <dc:format>image/svg+xml</dc:format>
    <dc:creator>
     <cc:Agent>
      <dc:title>Matplotlib v3.5.1, https://matplotlib.org/</dc:title>
     </cc:Agent>
    </dc:creator>
   </cc:Work>
  </rdf:RDF>
 </metadata>
 <defs>
  <style type="text/css">*{stroke-linejoin: round; stroke-linecap: butt}</style>
 </defs>
 <g id="figure_1">
  <g id="patch_1">
   <path d="M 0 288 
L 432 288 
L 432 0 
L 0 0 
L 0 288 
z
" style="fill: none"/>
  </g>
  <g id="patch_2">
   <path d="M 112.68 252 
L 330.12 252 
L 330.12 34.56 
L 112.68 34.56 
z
" style="fill: #ffffff"/>
  </g>
  <g id="pane3d_1">
   <g id="patch_3">
    <path d="M 129.09822 198.386264 
L 200.904009 138.197228 
L 199.90584 51.393878 
L 124.663773 106.302111 
" style="fill: #f2f2f2; opacity: 0.5; stroke: #f2f2f2; stroke-linejoin: miter"/>
   </g>
  </g>
  <g id="pane3d_2">
   <g id="patch_4">
    <path d="M 200.904009 138.197228 
L 316.12668 171.68791 
L 320.238571 81.894718 
L 199.90584 51.393878 
" style="fill: #e6e6e6; opacity: 0.5; stroke: #e6e6e6; stroke-linejoin: miter"/>
   </g>
  </g>
  <g id="pane3d_3">
   <g id="patch_5">
    <path d="M 129.09822 198.386264 
L 251.239879 238.27773 
L 316.12668 171.68791 
L 200.904009 138.197228 
" style="fill: #ececec; opacity: 0.5; stroke: #ececec; stroke-linejoin: miter"/>
   </g>
  </g>
  <g id="axis3d_1">
   <g id="line2d_1">
    <path d="M 129.09822 198.386264 
L 251.239879 238.27773 
" style="fill: none; stroke: #000000; stroke-width: 0.8; stroke-linecap: square"/>
   </g>
   <g id="text_1">
    <!-- x -->
    <g transform="translate(169.277868 255.903264)scale(0.1 -0.1)">
     <defs>
      <path id="DejaVuSans-78" d="M 3513 3500 
L 2247 1797 
L 3578 0 
L 2900 0 
L 1881 1375 
L 863 0 
L 184 0 
L 1544 1831 
L 300 3500 
L 978 3500 
L 1906 2253 
L 2834 3500 
L 3513 3500 
z
" transform="scale(0.015625)"/>
     </defs>
     <use xlink:href="#DejaVuSans-78"/>
    </g>
   </g>
   <g id="Line3DCollection_1">
    <path d="M 141.131816 202.316437 
L 212.301197 141.509941 
L 211.785864 54.405118 
" style="fill: none; stroke: #b0b0b0; stroke-width: 0.8"/>
    <path d="M 157.845378 207.775086 
L 228.114377 146.106208 
L 228.277175 58.585184 
" style="fill: none; stroke: #b0b0b0; stroke-width: 0.8"/>
    <path d="M 174.807158 213.314804 
L 244.142859 150.765055 
L 245.002769 62.824635 
" style="fill: none; stroke: #b0b0b0; stroke-width: 0.8"/>
    <path d="M 192.022727 218.937409 
L 260.391069 155.487768 
L 261.967675 67.124744 
" style="fill: none; stroke: #b0b0b0; stroke-width: 0.8"/>
    <path d="M 209.497826 224.644776 
L 276.863558 160.27567 
L 279.177066 71.486823 
" style="fill: none; stroke: #b0b0b0; stroke-width: 0.8"/>
    <path d="M 227.238366 230.438836 
L 293.565 165.13012 
L 296.636266 75.912221 
" style="fill: none; stroke: #b0b0b0; stroke-width: 0.8"/>
    <path d="M 245.250441 236.32158 
L 310.500203 170.052515 
L 314.350753 80.402327 
" style="fill: none; stroke: #b0b0b0; stroke-width: 0.8"/>
   </g>
   <g id="xtick_1">
    <g id="line2d_2">
     <path d="M 141.751658 201.786849 
L 139.889467 203.37789 
" style="fill: none; stroke: #000000; stroke-width: 0.8; stroke-linecap: square"/>
    </g>
    <g id="text_2">
     <!-- −5.0 -->
     <g transform="translate(121.460734 225.677939)scale(0.1 -0.1)">
      <defs>
       <path id="DejaVuSans-2212" d="M 678 2272 
L 4684 2272 
L 4684 1741 
L 678 1741 
L 678 2272 
z
" transform="scale(0.015625)"/>
       <path id="DejaVuSans-35" d="M 691 4666 
L 3169 4666 
L 3169 4134 
L 1269 4134 
L 1269 2991 
Q 1406 3038 1543 3061 
Q 1681 3084 1819 3084 
Q 2600 3084 3056 2656 
Q 3513 2228 3513 1497 
Q 3513 744 3044 326 
Q 2575 -91 1722 -91 
Q 1428 -91 1123 -41 
Q 819 9 494 109 
L 494 744 
Q 775 591 1075 516 
Q 1375 441 1709 441 
Q 2250 441 2565 725 
Q 2881 1009 2881 1497 
Q 2881 1984 2565 2268 
Q 2250 2553 1709 2553 
Q 1456 2553 1204 2497 
Q 953 2441 691 2322 
L 691 4666 
z
" transform="scale(0.015625)"/>
       <path id="DejaVuSans-2e" d="M 684 794 
L 1344 794 
L 1344 0 
L 684 0 
L 684 794 
z
" transform="scale(0.015625)"/>
       <path id="DejaVuSans-30" d="M 2034 4250 
Q 1547 4250 1301 3770 
Q 1056 3291 1056 2328 
Q 1056 1369 1301 889 
Q 1547 409 2034 409 
Q 2525 409 2770 889 
Q 3016 1369 3016 2328 
Q 3016 3291 2770 3770 
Q 2525 4250 2034 4250 
z
M 2034 4750 
Q 2819 4750 3233 4129 
Q 3647 3509 3647 2328 
Q 3647 1150 3233 529 
Q 2819 -91 2034 -91 
Q 1250 -91 836 529 
Q 422 1150 422 2328 
Q 422 3509 836 4129 
Q 1250 4750 2034 4750 
z
" transform="scale(0.015625)"/>
      </defs>
      <use xlink:href="#DejaVuSans-2212"/>
      <use xlink:href="#DejaVuSans-35" x="83.789062"/>
      <use xlink:href="#DejaVuSans-2e" x="147.412109"/>
      <use xlink:href="#DejaVuSans-30" x="179.199219"/>
     </g>
    </g>
   </g>
   <g id="xtick_2">
    <g id="line2d_3">
     <path d="M 158.457745 207.237665 
L 156.61799 208.852256 
" style="fill: none; stroke: #000000; stroke-width: 0.8; stroke-linecap: square"/>
    </g>
    <g id="text_3">
     <!-- −2.5 -->
     <g transform="translate(138.19536 231.2784)scale(0.1 -0.1)">
      <defs>
       <path id="DejaVuSans-32" d="M 1228 531 
L 3431 531 
L 3431 0 
L 469 0 
L 469 531 
Q 828 903 1448 1529 
Q 2069 2156 2228 2338 
Q 2531 2678 2651 2914 
Q 2772 3150 2772 3378 
Q 2772 3750 2511 3984 
Q 2250 4219 1831 4219 
Q 1534 4219 1204 4116 
Q 875 4013 500 3803 
L 500 4441 
Q 881 4594 1212 4672 
Q 1544 4750 1819 4750 
Q 2544 4750 2975 4387 
Q 3406 4025 3406 3419 
Q 3406 3131 3298 2873 
Q 3191 2616 2906 2266 
Q 2828 2175 2409 1742 
Q 1991 1309 1228 531 
z
" transform="scale(0.015625)"/>
      </defs>
      <use xlink:href="#DejaVuSans-2212"/>
      <use xlink:href="#DejaVuSans-32" x="83.789062"/>
      <use xlink:href="#DejaVuSans-2e" x="147.412109"/>
      <use xlink:href="#DejaVuSans-35" x="179.199219"/>
     </g>
    </g>
   </g>
   <g id="xtick_3">
    <g id="line2d_4">
     <path d="M 175.41176 212.769375 
L 173.595316 214.408041 
" style="fill: none; stroke: #000000; stroke-width: 0.8; stroke-linecap: square"/>
    </g>
    <g id="text_4">
     <!-- 0.0 -->
     <g transform="translate(159.369512 236.962421)scale(0.1 -0.1)">
      <use xlink:href="#DejaVuSans-30"/>
      <use xlink:href="#DejaVuSans-2e" x="63.623047"/>
      <use xlink:href="#DejaVuSans-30" x="95.410156"/>
     </g>
    </g>
   </g>
   <g id="xtick_4">
    <g id="line2d_5">
     <path d="M 192.619262 218.383791 
L 190.827036 220.047077 
" style="fill: none; stroke: #000000; stroke-width: 0.8; stroke-linecap: square"/>
    </g>
    <g id="text_5">
     <!-- 2.5 -->
     <g transform="translate(176.609132 242.731885)scale(0.1 -0.1)">
      <use xlink:href="#DejaVuSans-32"/>
      <use xlink:href="#DejaVuSans-2e" x="63.623047"/>
      <use xlink:href="#DejaVuSans-35" x="95.410156"/>
     </g>
    </g>
   </g>
   <g id="xtick_5">
    <g id="line2d_6">
     <path d="M 210.08598 224.082784 
L 208.318911 225.771248 
" style="fill: none; stroke: #000000; stroke-width: 0.8; stroke-linecap: square"/>
    </g>
    <g id="text_6">
     <!-- 5.0 -->
     <g transform="translate(194.109865 248.588734)scale(0.1 -0.1)">
      <use xlink:href="#DejaVuSans-35"/>
      <use xlink:href="#DejaVuSans-2e" x="63.623047"/>
      <use xlink:href="#DejaVuSans-30" x="95.410156"/>
     </g>
    </g>
   </g>
   <g id="xtick_6">
    <g id="line2d_7">
     <path d="M 227.817816 229.868279 
L 226.076879 231.582497 
" style="fill: none; stroke: #000000; stroke-width: 0.8; stroke-linecap: square"/>
    </g>
    <g id="text_7">
     <!-- 7.5 -->
     <g transform="translate(211.877689 254.534968)scale(0.1 -0.1)">
      <defs>
       <path id="DejaVuSans-37" d="M 525 4666 
L 3525 4666 
L 3525 4397 
L 1831 0 
L 1172 0 
L 2766 4134 
L 525 4134 
L 525 4666 
z
" transform="scale(0.015625)"/>
      </defs>
      <use xlink:href="#DejaVuSans-37"/>
      <use xlink:href="#DejaVuSans-2e" x="63.623047"/>
      <use xlink:href="#DejaVuSans-35" x="95.410156"/>
     </g>
    </g>
   </g>
   <g id="xtick_7">
    <g id="line2d_8">
     <path d="M 245.820851 235.74226 
L 244.107057 237.482826 
" style="fill: none; stroke: #000000; stroke-width: 0.8; stroke-linecap: square"/>
    </g>
    <g id="text_8">
     <!-- 10.0 -->
     <g transform="translate(226.737514 260.572649)scale(0.1 -0.1)">
      <defs>
       <path id="DejaVuSans-31" d="M 794 531 
L 1825 531 
L 1825 4091 
L 703 3866 
L 703 4441 
L 1819 4666 
L 2450 4666 
L 2450 531 
L 3481 531 
L 3481 0 
L 794 0 
L 794 531 
z
" transform="scale(0.015625)"/>
      </defs>
      <use xlink:href="#DejaVuSans-31"/>
      <use xlink:href="#DejaVuSans-30" x="63.623047"/>
      <use xlink:href="#DejaVuSans-2e" x="127.246094"/>
      <use xlink:href="#DejaVuSans-30" x="159.033203"/>
     </g>
    </g>
   </g>
  </g>
  <g id="axis3d_2">
   <g id="line2d_9">
    <path d="M 316.12668 171.68791 
L 251.239879 238.27773 
" style="fill: none; stroke: #000000; stroke-width: 0.8; stroke-linecap: square"/>
   </g>
   <g id="text_9">
    <!-- y -->
    <g transform="translate(309.154082 234.270788)scale(0.1 -0.1)">
     <defs>
      <path id="DejaVuSans-79" d="M 2059 -325 
Q 1816 -950 1584 -1140 
Q 1353 -1331 966 -1331 
L 506 -1331 
L 506 -850 
L 844 -850 
Q 1081 -850 1212 -737 
Q 1344 -625 1503 -206 
L 1606 56 
L 191 3500 
L 800 3500 
L 1894 763 
L 2988 3500 
L 3597 3500 
L 2059 -325 
z
" transform="scale(0.015625)"/>
     </defs>
     <use xlink:href="#DejaVuSans-79"/>
    </g>
   </g>
   <g id="Line3DCollection_2">
    <path d="M 133.079581 100.160638 
L 137.102635 191.676805 
L 258.501436 230.825586 
" style="fill: none; stroke: #b0b0b0; stroke-width: 0.8"/>
    <path d="M 145.698409 90.951992 
L 149.117342 181.605839 
L 269.387678 219.653624 
" style="fill: none; stroke: #b0b0b0; stroke-width: 0.8"/>
    <path d="M 157.958376 82.005226 
L 160.805022 171.808994 
L 279.96217 208.801594 
" style="fill: none; stroke: #b0b0b0; stroke-width: 0.8"/>
    <path d="M 169.874576 73.309326 
L 172.178847 162.275229 
L 290.238114 198.255947 
" style="fill: none; stroke: #b0b0b0; stroke-width: 0.8"/>
    <path d="M 181.461267 64.853887 
L 183.25129 152.994087 
L 300.227978 188.003889 
" style="fill: none; stroke: #b0b0b0; stroke-width: 0.8"/>
    <path d="M 192.73193 56.62907 
L 194.034175 143.955659 
L 309.943544 178.033328 
" style="fill: none; stroke: #b0b0b0; stroke-width: 0.8"/>
   </g>
   <g id="xtick_8">
    <g id="line2d_10">
     <path d="M 257.478596 230.49574 
L 260.549752 231.486129 
" style="fill: none; stroke: #000000; stroke-width: 0.8; stroke-linecap: square"/>
    </g>
    <g id="text_10">
     <!-- −4 -->
     <g transform="translate(263.967219 251.797528)scale(0.1 -0.1)">
      <defs>
       <path id="DejaVuSans-34" d="M 2419 4116 
L 825 1625 
L 2419 1625 
L 2419 4116 
z
M 2253 4666 
L 3047 4666 
L 3047 1625 
L 3713 1625 
L 3713 1100 
L 3047 1100 
L 3047 0 
L 2419 0 
L 2419 1100 
L 313 1100 
L 313 1709 
L 2253 4666 
z
" transform="scale(0.015625)"/>
      </defs>
      <use xlink:href="#DejaVuSans-2212"/>
      <use xlink:href="#DejaVuSans-34" x="83.789062"/>
     </g>
    </g>
   </g>
   <g id="xtick_9">
    <g id="line2d_11">
     <path d="M 268.375088 219.333289 
L 271.415428 220.295107 
" style="fill: none; stroke: #000000; stroke-width: 0.8; stroke-linecap: square"/>
    </g>
    <g id="text_11">
     <!-- −2 -->
     <g transform="translate(274.674685 240.423117)scale(0.1 -0.1)">
      <use xlink:href="#DejaVuSans-2212"/>
      <use xlink:href="#DejaVuSans-32" x="83.789062"/>
     </g>
    </g>
   </g>
   <g id="xtick_10">
    <g id="line2d_12">
     <path d="M 278.959667 208.490365 
L 281.969683 209.424831 
" style="fill: none; stroke: #000000; stroke-width: 0.8; stroke-linecap: square"/>
    </g>
    <g id="text_12">
     <!-- 0 -->
     <g transform="translate(289.265146 229.374666)scale(0.1 -0.1)">
      <use xlink:href="#DejaVuSans-30"/>
     </g>
    </g>
   </g>
   <g id="xtick_11">
    <g id="line2d_13">
     <path d="M 289.245537 197.953441 
L 292.225717 198.861706 
" style="fill: none; stroke: #000000; stroke-width: 0.8; stroke-linecap: square"/>
    </g>
    <g id="text_13">
     <!-- 2 -->
     <g transform="translate(299.371921 218.638362)scale(0.1 -0.1)">
      <use xlink:href="#DejaVuSans-32"/>
     </g>
    </g>
   </g>
   <g id="xtick_12">
    <g id="line2d_14">
     <path d="M 299.245166 187.709745 
L 302.195993 188.592894 
" style="fill: none; stroke: #000000; stroke-width: 0.8; stroke-linecap: square"/>
    </g>
    <g id="text_14">
     <!-- 4 -->
     <g transform="translate(309.19713 208.201161)scale(0.1 -0.1)">
      <use xlink:href="#DejaVuSans-34"/>
     </g>
    </g>
   </g>
   <g id="xtick_13">
    <g id="line2d_15">
     <path d="M 308.970339 177.747203 
L 311.892291 178.606265 
" style="fill: none; stroke: #000000; stroke-width: 0.8; stroke-linecap: square"/>
    </g>
    <g id="text_15">
     <!-- 6 -->
     <g transform="translate(318.75238 198.050735)scale(0.1 -0.1)">
      <defs>
       <path id="DejaVuSans-36" d="M 2113 2584 
Q 1688 2584 1439 2293 
Q 1191 2003 1191 1497 
Q 1191 994 1439 701 
Q 1688 409 2113 409 
Q 2538 409 2786 701 
Q 3034 994 3034 1497 
Q 3034 2003 2786 2293 
Q 2538 2584 2113 2584 
z
M 3366 4563 
L 3366 3988 
Q 3128 4100 2886 4159 
Q 2644 4219 2406 4219 
Q 1781 4219 1451 3797 
Q 1122 3375 1075 2522 
Q 1259 2794 1537 2939 
Q 1816 3084 2150 3084 
Q 2853 3084 3261 2657 
Q 3669 2231 3669 1497 
Q 3669 778 3244 343 
Q 2819 -91 2113 -91 
Q 1303 -91 875 529 
Q 447 1150 447 2328 
Q 447 3434 972 4092 
Q 1497 4750 2381 4750 
Q 2619 4750 2861 4703 
Q 3103 4656 3366 4563 
z
" transform="scale(0.015625)"/>
      </defs>
      <use xlink:href="#DejaVuSans-36"/>
     </g>
    </g>
   </g>
  </g>
  <g id="axis3d_3">
   <g id="line2d_16">
    <path d="M 316.12668 171.68791 
L 320.238571 81.894718 
" style="fill: none; stroke: #000000; stroke-width: 0.8; stroke-linecap: square"/>
   </g>
   <g id="text_16">
    <!-- z -->
    <g transform="translate(355.829279 125.132978)scale(0.1 -0.1)">
     <defs>
      <path id="DejaVuSans-7a" d="M 353 3500 
L 3084 3500 
L 3084 2975 
L 922 459 
L 3084 459 
L 3084 0 
L 275 0 
L 275 525 
L 2438 3041 
L 353 3041 
L 353 3500 
z
" transform="scale(0.015625)"/>
     </defs>
     <use xlink:href="#DejaVuSans-7a"/>
    </g>
   </g>
   <g id="Line3DCollection_3">
    <path d="M 316.377812 166.203837 
L 200.842925 132.88524 
L 128.827816 192.771169 
" style="fill: none; stroke: #b0b0b0; stroke-width: 0.8"/>
    <path d="M 317.249366 147.171322 
L 200.631056 114.46058 
L 127.888949 173.274973 
" style="fill: none; stroke: #b0b0b0; stroke-width: 0.8"/>
    <path d="M 318.137584 127.774911 
L 200.415332 95.700609 
L 126.93144 153.391677 
" style="fill: none; stroke: #b0b0b0; stroke-width: 0.8"/>
    <path d="M 319.042948 108.004065 
L 200.195645 76.59609 
L 125.954728 133.109636 
" style="fill: none; stroke: #b0b0b0; stroke-width: 0.8"/>
    <path d="M 319.96596 87.847837 
L 199.971886 57.137443 
L 124.958232 112.416735 
" style="fill: none; stroke: #b0b0b0; stroke-width: 0.8"/>
   </g>
   <g id="xtick_14">
    <g id="line2d_17">
     <path d="M 315.408032 165.924166 
L 318.319685 166.763845 
" style="fill: none; stroke: #000000; stroke-width: 0.8; stroke-linecap: square"/>
    </g>
    <g id="text_17">
     <!-- −2 -->
     <g transform="translate(327.291906 171.212092)scale(0.1 -0.1)">
      <use xlink:href="#DejaVuSans-2212"/>
      <use xlink:href="#DejaVuSans-32" x="83.789062"/>
     </g>
    </g>
   </g>
   <g id="xtick_15">
    <g id="line2d_18">
     <path d="M 316.270057 146.896632 
L 319.210341 147.721364 
" style="fill: none; stroke: #000000; stroke-width: 0.8; stroke-linecap: square"/>
    </g>
    <g id="text_18">
     <!-- −1 -->
     <g transform="translate(328.332732 152.225782)scale(0.1 -0.1)">
      <use xlink:href="#DejaVuSans-2212"/>
      <use xlink:href="#DejaVuSans-31" x="83.789062"/>
     </g>
    </g>
   </g>
   <g id="xtick_16">
    <g id="line2d_19">
     <path d="M 317.148557 127.505443 
L 320.118041 128.314501 
" style="fill: none; stroke: #000000; stroke-width: 0.8; stroke-linecap: square"/>
    </g>
    <g id="text_19">
     <!-- 0 -->
     <g transform="translate(333.583227 132.877818)scale(0.1 -0.1)">
      <use xlink:href="#DejaVuSans-30"/>
     </g>
    </g>
   </g>
   <g id="xtick_17">
    <g id="line2d_20">
     <path d="M 318.04401 107.740074 
L 321.043277 108.532695 
" style="fill: none; stroke: #000000; stroke-width: 0.8; stroke-linecap: square"/>
    </g>
    <g id="text_20">
     <!-- 1 -->
     <g transform="translate(334.664276 113.157768)scale(0.1 -0.1)">
      <use xlink:href="#DejaVuSans-31"/>
     </g>
    </g>
   </g>
   <g id="xtick_18">
    <g id="line2d_21">
     <path d="M 318.956909 87.589588 
L 321.986563 88.364975 
" style="fill: none; stroke: #000000; stroke-width: 0.8; stroke-linecap: square"/>
    </g>
    <g id="text_21">
     <!-- 2 -->
     <g transform="translate(335.766317 93.054794)scale(0.1 -0.1)">
      <use xlink:href="#DejaVuSans-32"/>
     </g>
    </g>
   </g>
  </g>
  <g id="axes_1">
   <g id="line2d_22">
    <path d="M 166.797352 130.043032 
L 273.107307 161.024698 
" clip-path="url(#p07e55867a6)" style="fill: none; stroke: #000000; stroke-width: 1.5; stroke-linecap: square"/>
   </g>
   <g id="line2d_23">
    <path d="M 178.559332 163.585207 
L 240.412494 111.242085 
" clip-path="url(#p07e55867a6)" style="fill: none; stroke: #000000; stroke-width: 1.5; stroke-linecap: square"/>
   </g>
   <g id="line2d_24">
    <path d="M 205.398856 180.116237 
L 204.645338 100.704709 
" clip-path="url(#p07e55867a6)" style="fill: none; stroke: #000000; stroke-width: 1.5; stroke-linecap: square"/>
   </g>
   <g id="line2d_25">
    <path d="M 268.466649 114.016609 
L 231.293598 122.266224 
" clip-path="url(#p07e55867a6)" style="fill: none; stroke: #1f77b4; stroke-width: 1.5; stroke-linecap: square"/>
   </g>
   <g id="line2d_26">
    <path d="M 231.293598 122.266224 
L 223.022227 113.730373 
" clip-path="url(#p07e55867a6)" style="fill: none; stroke: #1f77b4; stroke-width: 1.5; stroke-linecap: square"/>
   </g>
   <g id="line2d_27">
    <path d="M 223.022227 113.730373 
L 225.896895 96.536021 
" clip-path="url(#p07e55867a6)" style="fill: none; stroke: #1f77b4; stroke-width: 1.5; stroke-linecap: square"/>
   </g>
   <g id="line2d_28">
    <path d="M 225.896895 96.536021 
L 219.227149 94.736116 
" clip-path="url(#p07e55867a6)" style="fill: none; stroke: #1f77b4; stroke-width: 1.5; stroke-linecap: square"/>
   </g>
   <g id="line2d_29">
    <path d="M 219.227149 94.736116 
L 207.104675 97.303851 
" clip-path="url(#p07e55867a6)" style="fill: none; stroke: #1f77b4; stroke-width: 1.5; stroke-linecap: square"/>
   </g>
   <g id="line2d_30">
    <path d="M 207.104675 97.303851 
L 200.480232 95.499595 
" clip-path="url(#p07e55867a6)" style="fill: none; stroke: #1f77b4; stroke-width: 1.5; stroke-linecap: square"/>
   </g>
   <g id="line2d_31">
    <path d="M 200.480232 95.499595 
L 188.266937 98.07354 
" clip-path="url(#p07e55867a6)" style="fill: none; stroke: #1f77b4; stroke-width: 1.5; stroke-linecap: square"/>
   </g>
   <g id="line2d_32">
    <path d="M 188.266937 98.07354 
L 182.56226 102.502329 
" clip-path="url(#p07e55867a6)" style="fill: none; stroke: #1f77b4; stroke-width: 1.5; stroke-linecap: square"/>
   </g>
   <g id="line2d_33">
    <path d="M 182.56226 102.502329 
L 202.616535 108.06759 
" clip-path="url(#p07e55867a6)" style="fill: none; stroke: #1f77b4; stroke-width: 1.5; stroke-linecap: square"/>
   </g>
   <g id="line2d_34">
    <path d="M 202.616535 108.06759 
L 176.777617 106.993198 
" clip-path="url(#p07e55867a6)" style="fill: none; stroke: #1f77b4; stroke-width: 1.5; stroke-linecap: square"/>
   </g>
   <g id="line2d_35">
    <path d="M 176.777617 106.993198 
L 177.617673 113.444388 
" clip-path="url(#p07e55867a6)" style="fill: none; stroke: #1f77b4; stroke-width: 1.5; stroke-linecap: square"/>
   </g>
   <g id="line2d_36">
    <path d="M 177.617673 113.444388 
L 196.92308 112.637088 
" clip-path="url(#p07e55867a6)" style="fill: none; stroke: #1f77b4; stroke-width: 1.5; stroke-linecap: square"/>
   </g>
   <g id="line2d_37">
    <path d="M 196.92308 112.637088 
L 197.973754 119.202201 
" clip-path="url(#p07e55867a6)" style="fill: none; stroke: #1f77b4; stroke-width: 1.5; stroke-linecap: square"/>
   </g>
   <g id="line2d_38">
    <path d="M 197.973754 119.202201 
L 187.204511 135.623926 
" clip-path="url(#p07e55867a6)" style="fill: none; stroke: #1f77b4; stroke-width: 1.5; stroke-linecap: square"/>
   </g>
   <g id="line2d_39">
    <path d="M 187.204511 135.623926 
L 174.15727 138.534866 
" clip-path="url(#p07e55867a6)" style="fill: none; stroke: #1f77b4; stroke-width: 1.5; stroke-linecap: square"/>
   </g>
   <g id="line2d_40">
    <path d="M 174.15727 138.534866 
L 188.191155 142.663447 
" clip-path="url(#p07e55867a6)" style="fill: none; stroke: #1f77b4; stroke-width: 1.5; stroke-linecap: square"/>
   </g>
   <g id="line2d_41">
    <path d="M 188.191155 142.663447 
L 201.256916 139.716961 
" clip-path="url(#p07e55867a6)" style="fill: none; stroke: #1f77b4; stroke-width: 1.5; stroke-linecap: square"/>
   </g>
   <g id="line2d_42">
    <path d="M 201.256916 139.716961 
L 200.139997 132.737921 
" clip-path="url(#p07e55867a6)" style="fill: none; stroke: #1f77b4; stroke-width: 1.5; stroke-linecap: square"/>
   </g>
   <g id="line2d_43">
    <path d="M 200.139997 132.737921 
L 219.987491 131.882144 
" clip-path="url(#p07e55867a6)" style="fill: none; stroke: #1f77b4; stroke-width: 1.5; stroke-linecap: square"/>
   </g>
   <g id="line2d_44">
    <path d="M 219.987491 131.882144 
L 245.328246 126.198127 
" clip-path="url(#p07e55867a6)" style="fill: none; stroke: #1f77b4; stroke-width: 1.5; stroke-linecap: square"/>
   </g>
   <g id="line2d_45">
    <path d="M 245.328246 126.198127 
L 268.466649 114.016609 
" clip-path="url(#p07e55867a6)" style="fill: none; stroke: #1f77b4; stroke-width: 1.5; stroke-linecap: square"/>
   </g>
   <g id="line2d_46">
    <path d="M 294.741632 115.114538 
L 257.8381 123.392124 
" clip-path="url(#p07e55867a6)" style="fill: none; stroke: #d62728; stroke-width: 1.5; stroke-linecap: square"/>
   </g>
   <g id="line2d_47">
    <path d="M 257.8381 123.392124 
L 249.209199 114.827337 
" clip-path="url(#p07e55867a6)" style="fill: none; stroke: #d62728; stroke-width: 1.5; stroke-linecap: square"/>
   </g>
   <g id="line2d_48">
    <path d="M 249.209199 114.827337 
L 251.396827 97.575842 
" clip-path="url(#p07e55867a6)" style="fill: none; stroke: #d62728; stroke-width: 1.5; stroke-linecap: square"/>
   </g>
   <g id="line2d_49">
    <path d="M 251.396827 97.575842 
L 244.643764 95.770044 
" clip-path="url(#p07e55867a6)" style="fill: none; stroke: #d62728; stroke-width: 1.5; stroke-linecap: square"/>
   </g>
   <g id="line2d_50">
    <path d="M 244.643764 95.770044 
L 232.604681 98.346191 
" clip-path="url(#p07e55867a6)" style="fill: none; stroke: #d62728; stroke-width: 1.5; stroke-linecap: square"/>
   </g>
   <g id="line2d_51">
    <path d="M 232.604681 98.346191 
L 225.896895 96.536021 
" clip-path="url(#p07e55867a6)" style="fill: none; stroke: #d62728; stroke-width: 1.5; stroke-linecap: square"/>
   </g>
   <g id="line2d_52">
    <path d="M 225.896895 96.536021 
L 213.766944 99.118409 
" clip-path="url(#p07e55867a6)" style="fill: none; stroke: #d62728; stroke-width: 1.5; stroke-linecap: square"/>
   </g>
   <g id="line2d_53">
    <path d="M 213.766944 99.118409 
L 208.230607 103.561805 
" clip-path="url(#p07e55867a6)" style="fill: none; stroke: #d62728; stroke-width: 1.5; stroke-linecap: square"/>
   </g>
   <g id="line2d_54">
    <path d="M 208.230607 103.561805 
L 228.541646 109.145566 
" clip-path="url(#p07e55867a6)" style="fill: none; stroke: #d62728; stroke-width: 1.5; stroke-linecap: square"/>
   </g>
   <g id="line2d_55">
    <path d="M 228.541646 109.145566 
L 202.616535 108.06759 
" clip-path="url(#p07e55867a6)" style="fill: none; stroke: #d62728; stroke-width: 1.5; stroke-linecap: square"/>
   </g>
   <g id="line2d_56">
    <path d="M 202.616535 108.06759 
L 203.716779 114.540389 
" clip-path="url(#p07e55867a6)" style="fill: none; stroke: #d62728; stroke-width: 1.5; stroke-linecap: square"/>
   </g>
   <g id="line2d_57">
    <path d="M 203.716779 114.540389 
L 223.022227 113.730373 
" clip-path="url(#p07e55867a6)" style="fill: none; stroke: #d62728; stroke-width: 1.5; stroke-linecap: square"/>
   </g>
   <g id="line2d_58">
    <path d="M 223.022227 113.730373 
L 224.338378 120.317672 
" clip-path="url(#p07e55867a6)" style="fill: none; stroke: #d62728; stroke-width: 1.5; stroke-linecap: square"/>
   </g>
   <g id="line2d_59">
    <path d="M 224.338378 120.317672 
L 214.210085 136.795866 
" clip-path="url(#p07e55867a6)" style="fill: none; stroke: #d62728; stroke-width: 1.5; stroke-linecap: square"/>
   </g>
   <g id="line2d_60">
    <path d="M 214.210085 136.795866 
L 201.256916 139.716961 
" clip-path="url(#p07e55867a6)" style="fill: none; stroke: #d62728; stroke-width: 1.5; stroke-linecap: square"/>
   </g>
   <g id="line2d_61">
    <path d="M 201.256916 139.716961 
L 215.481069 143.860021 
" clip-path="url(#p07e55867a6)" style="fill: none; stroke: #d62728; stroke-width: 1.5; stroke-linecap: square"/>
   </g>
   <g id="line2d_62">
    <path d="M 215.481069 143.860021 
L 228.451394 140.903193 
" clip-path="url(#p07e55867a6)" style="fill: none; stroke: #d62728; stroke-width: 1.5; stroke-linecap: square"/>
   </g>
   <g id="line2d_63">
    <path d="M 228.451394 140.903193 
L 227.052113 133.899835 
" clip-path="url(#p07e55867a6)" style="fill: none; stroke: #d62728; stroke-width: 1.5; stroke-linecap: square"/>
   </g>
   <g id="line2d_64">
    <path d="M 227.052113 133.899835 
L 246.89955 133.041094 
" clip-path="url(#p07e55867a6)" style="fill: none; stroke: #d62728; stroke-width: 1.5; stroke-linecap: square"/>
   </g>
   <g id="line2d_65">
    <path d="M 246.89955 133.041094 
L 272.055099 127.337483 
" clip-path="url(#p07e55867a6)" style="fill: none; stroke: #d62728; stroke-width: 1.5; stroke-linecap: square"/>
   </g>
   <g id="line2d_66">
    <path d="M 272.055099 127.337483 
L 294.741632 115.114538 
" clip-path="url(#p07e55867a6)" style="fill: none; stroke: #d62728; stroke-width: 1.5; stroke-linecap: square"/>
   </g>
   <g id="Path3DCollection_1">
    <defs>
     <path id="m892c00e279" d="M -2.236068 2.236068 
L 2.236068 -2.236068 
M -2.236068 -2.236068 
L 2.236068 2.236068 
" style="stroke: #000000; stroke-width: 1.5"/>
    </defs>
    <g clip-path="url(#p07e55867a6)">
     <use xlink:href="#m892c00e279" x="205.029446" y="141.184923" style="stroke: #000000; stroke-width: 1.5"/>
    </g>
   </g>
   <g id="Path3DCollection_2">
    <defs>
     <path id="C0_0_a5c8af69d1" d="M 0 2.236068 
C 0.593012 2.236068 1.161816 2.000462 1.581139 1.581139 
C 2.000462 1.161816 2.236068 0.593012 2.236068 -0 
C 2.236068 -0.593012 2.000462 -1.161816 1.581139 -1.581139 
C 1.161816 -2.000462 0.593012 -2.236068 0 -2.236068 
C -0.593012 -2.236068 -1.161816 -2.000462 -1.581139 -1.581139 
C -2.000462 -1.161816 -2.236068 -0.593012 -2.236068 0 
C -2.236068 0.593012 -2.000462 1.161816 -1.581139 1.581139 
C -1.161816 2.000462 -0.593012 2.236068 0 2.236068 
z
"/>
    </defs>
    <g clip-path="url(#p07e55867a6)">
     <use xlink:href="#C0_0_a5c8af69d1" x="219.227149" y="94.736116" style="fill: #1f77b4; fill-opacity: 0.3; stroke: #1f77b4; stroke-opacity: 0.3"/>
    </g>
    <g clip-path="url(#p07e55867a6)">
     <use xlink:href="#C0_0_a5c8af69d1" x="200.480232" y="95.499595" style="fill: #1f77b4; fill-opacity: 0.311151; stroke: #1f77b4; stroke-opacity: 0.311151"/>
    </g>
    <g clip-path="url(#p07e55867a6)">
     <use xlink:href="#C0_0_a5c8af69d1" x="225.896895" y="96.536021" style="fill: #1f77b4; fill-opacity: 0.326288; stroke: #1f77b4; stroke-opacity: 0.326288"/>
    </g>
    <g clip-path="url(#p07e55867a6)">
     <use xlink:href="#C0_0_a5c8af69d1" x="207.104675" y="97.303851" style="fill: #1f77b4; fill-opacity: 0.337503; stroke: #1f77b4; stroke-opacity: 0.337503"/>
    </g>
    <g clip-path="url(#p07e55867a6)">
     <use xlink:href="#C0_0_a5c8af69d1" x="188.266937" y="98.07354" style="fill: #1f77b4; fill-opacity: 0.348745; stroke: #1f77b4; stroke-opacity: 0.348745"/>
    </g>
    <g clip-path="url(#p07e55867a6)">
     <use xlink:href="#C0_0_a5c8af69d1" x="182.56226" y="102.502329" style="fill: #1f77b4; fill-opacity: 0.413429; stroke: #1f77b4; stroke-opacity: 0.413429"/>
    </g>
    <g clip-path="url(#p07e55867a6)">
     <use xlink:href="#C0_0_a5c8af69d1" x="176.777617" y="106.993198" style="fill: #1f77b4; fill-opacity: 0.47902; stroke: #1f77b4; stroke-opacity: 0.47902"/>
    </g>
    <g clip-path="url(#p07e55867a6)">
     <use xlink:href="#C0_0_a5c8af69d1" x="202.616535" y="108.06759" style="fill: #1f77b4; fill-opacity: 0.494712; stroke: #1f77b4; stroke-opacity: 0.494712"/>
    </g>
    <g clip-path="url(#p07e55867a6)">
     <use xlink:href="#C0_0_a5c8af69d1" x="196.92308" y="112.637088" style="fill: #1f77b4; fill-opacity: 0.561452; stroke: #1f77b4; stroke-opacity: 0.561452"/>
    </g>
    <g clip-path="url(#p07e55867a6)">
     <use xlink:href="#C0_0_a5c8af69d1" x="177.617673" y="113.444388" style="fill: #1f77b4; fill-opacity: 0.573243; stroke: #1f77b4; stroke-opacity: 0.573243"/>
    </g>
    <g clip-path="url(#p07e55867a6)">
     <use xlink:href="#C0_0_a5c8af69d1" x="223.022227" y="113.730373" style="fill: #1f77b4; fill-opacity: 0.57742; stroke: #1f77b4; stroke-opacity: 0.57742"/>
    </g>
    <g clip-path="url(#p07e55867a6)">
     <use xlink:href="#C0_0_a5c8af69d1" x="268.466649" y="114.016609" style="fill: #1f77b4; fill-opacity: 0.5816; stroke: #1f77b4; stroke-opacity: 0.5816"/>
    </g>
    <g clip-path="url(#p07e55867a6)">
     <use xlink:href="#C0_0_a5c8af69d1" x="197.973754" y="119.202201" style="fill: #1f77b4; fill-opacity: 0.657338; stroke: #1f77b4; stroke-opacity: 0.657338"/>
    </g>
    <g clip-path="url(#p07e55867a6)">
     <use xlink:href="#C0_0_a5c8af69d1" x="231.293598" y="122.266224" style="fill: #1f77b4; fill-opacity: 0.702089; stroke: #1f77b4; stroke-opacity: 0.702089"/>
    </g>
    <g clip-path="url(#p07e55867a6)">
     <use xlink:href="#C0_0_a5c8af69d1" x="245.328246" y="126.198127" style="fill: #1f77b4; fill-opacity: 0.759517; stroke: #1f77b4; stroke-opacity: 0.759517"/>
    </g>
    <g clip-path="url(#p07e55867a6)">
     <use xlink:href="#C0_0_a5c8af69d1" x="219.987491" y="131.882144" style="fill: #1f77b4; fill-opacity: 0.842534; stroke: #1f77b4; stroke-opacity: 0.842534"/>
    </g>
    <g clip-path="url(#p07e55867a6)">
     <use xlink:href="#C0_0_a5c8af69d1" x="200.139997" y="132.737921" style="fill: #1f77b4; fill-opacity: 0.855033; stroke: #1f77b4; stroke-opacity: 0.855033"/>
    </g>
    <g clip-path="url(#p07e55867a6)">
     <use xlink:href="#C0_0_a5c8af69d1" x="187.204511" y="135.623926" style="fill: #1f77b4; fill-opacity: 0.897185; stroke: #1f77b4; stroke-opacity: 0.897185"/>
    </g>
    <g clip-path="url(#p07e55867a6)">
     <use xlink:href="#C0_0_a5c8af69d1" x="174.15727" y="138.534866" style="fill: #1f77b4; fill-opacity: 0.9397; stroke: #1f77b4; stroke-opacity: 0.9397"/>
    </g>
    <g clip-path="url(#p07e55867a6)">
     <use xlink:href="#C0_0_a5c8af69d1" x="201.256916" y="139.716961" style="fill: #1f77b4; fill-opacity: 0.956965; stroke: #1f77b4; stroke-opacity: 0.956965"/>
    </g>
    <g clip-path="url(#p07e55867a6)">
     <use xlink:href="#C0_0_a5c8af69d1" x="188.191155" y="142.663447" style="fill: #1f77b4; stroke: #1f77b4"/>
    </g>
   </g>
   <g id="Path3DCollection_3">
    <defs>
     <path id="C1_0_368f6646f3" d="M 0 2.236068 
C 0.593012 2.236068 1.161816 2.000462 1.581139 1.581139 
C 2.000462 1.161816 2.236068 0.593012 2.236068 -0 
C 2.236068 -0.593012 2.000462 -1.161816 1.581139 -1.581139 
C 1.161816 -2.000462 0.593012 -2.236068 0 -2.236068 
C -0.593012 -2.236068 -1.161816 -2.000462 -1.581139 -1.581139 
C -2.000462 -1.161816 -2.236068 -0.593012 -2.236068 0 
C -2.236068 0.593012 -2.000462 1.161816 -1.581139 1.581139 
C -1.161816 2.000462 -0.593012 2.236068 0 2.236068 
z
"/>
    </defs>
    <g clip-path="url(#p07e55867a6)">
     <use xlink:href="#C1_0_368f6646f3" x="244.643764" y="95.770044" style="fill: #d62728; fill-opacity: 0.3; stroke: #d62728; stroke-opacity: 0.3"/>
    </g>
    <g clip-path="url(#p07e55867a6)">
     <use xlink:href="#C1_0_368f6646f3" x="225.896895" y="96.536021" style="fill: #d62728; fill-opacity: 0.31115; stroke: #d62728; stroke-opacity: 0.31115"/>
    </g>
    <g clip-path="url(#p07e55867a6)">
     <use xlink:href="#C1_0_368f6646f3" x="251.396827" y="97.575842" style="fill: #d62728; fill-opacity: 0.326285; stroke: #d62728; stroke-opacity: 0.326285"/>
    </g>
    <g clip-path="url(#p07e55867a6)">
     <use xlink:href="#C1_0_368f6646f3" x="232.604681" y="98.346191" style="fill: #d62728; fill-opacity: 0.337499; stroke: #d62728; stroke-opacity: 0.337499"/>
    </g>
    <g clip-path="url(#p07e55867a6)">
     <use xlink:href="#C1_0_368f6646f3" x="213.766944" y="99.118409" style="fill: #d62728; fill-opacity: 0.348739; stroke: #d62728; stroke-opacity: 0.348739"/>
    </g>
    <g clip-path="url(#p07e55867a6)">
     <use xlink:href="#C1_0_368f6646f3" x="208.230607" y="103.561805" style="fill: #d62728; fill-opacity: 0.413417; stroke: #d62728; stroke-opacity: 0.413417"/>
    </g>
    <g clip-path="url(#p07e55867a6)">
     <use xlink:href="#C1_0_368f6646f3" x="202.616535" y="108.06759" style="fill: #d62728; fill-opacity: 0.479004; stroke: #d62728; stroke-opacity: 0.479004"/>
    </g>
    <g clip-path="url(#p07e55867a6)">
     <use xlink:href="#C1_0_368f6646f3" x="228.541646" y="109.145566" style="fill: #d62728; fill-opacity: 0.494695; stroke: #d62728; stroke-opacity: 0.494695"/>
    </g>
    <g clip-path="url(#p07e55867a6)">
     <use xlink:href="#C1_0_368f6646f3" x="223.022227" y="113.730373" style="fill: #d62728; fill-opacity: 0.561431; stroke: #d62728; stroke-opacity: 0.561431"/>
    </g>
    <g clip-path="url(#p07e55867a6)">
     <use xlink:href="#C1_0_368f6646f3" x="203.716779" y="114.540389" style="fill: #d62728; fill-opacity: 0.573222; stroke: #d62728; stroke-opacity: 0.573222"/>
    </g>
    <g clip-path="url(#p07e55867a6)">
     <use xlink:href="#C1_0_368f6646f3" x="249.209199" y="114.827337" style="fill: #d62728; fill-opacity: 0.577399; stroke: #d62728; stroke-opacity: 0.577399"/>
    </g>
    <g clip-path="url(#p07e55867a6)">
     <use xlink:href="#C1_0_368f6646f3" x="294.741632" y="115.114538" style="fill: #d62728; fill-opacity: 0.581579; stroke: #d62728; stroke-opacity: 0.581579"/>
    </g>
    <g clip-path="url(#p07e55867a6)">
     <use xlink:href="#C1_0_368f6646f3" x="224.338378" y="120.317672" style="fill: #d62728; fill-opacity: 0.657316; stroke: #d62728; stroke-opacity: 0.657316"/>
    </g>
    <g clip-path="url(#p07e55867a6)">
     <use xlink:href="#C1_0_368f6646f3" x="257.8381" y="123.392124" style="fill: #d62728; fill-opacity: 0.702068; stroke: #d62728; stroke-opacity: 0.702068"/>
    </g>
    <g clip-path="url(#p07e55867a6)">
     <use xlink:href="#C1_0_368f6646f3" x="272.055099" y="127.337483" style="fill: #d62728; fill-opacity: 0.759497; stroke: #d62728; stroke-opacity: 0.759497"/>
    </g>
    <g clip-path="url(#p07e55867a6)">
     <use xlink:href="#C1_0_368f6646f3" x="246.89955" y="133.041094" style="fill: #d62728; fill-opacity: 0.842519; stroke: #d62728; stroke-opacity: 0.842519"/>
    </g>
    <g clip-path="url(#p07e55867a6)">
     <use xlink:href="#C1_0_368f6646f3" x="227.052113" y="133.899835" style="fill: #d62728; fill-opacity: 0.855019; stroke: #d62728; stroke-opacity: 0.855019"/>
    </g>
    <g clip-path="url(#p07e55867a6)">
     <use xlink:href="#C1_0_368f6646f3" x="214.210085" y="136.795866" style="fill: #d62728; fill-opacity: 0.897174; stroke: #d62728; stroke-opacity: 0.897174"/>
    </g>
    <g clip-path="url(#p07e55867a6)">
     <use xlink:href="#C1_0_368f6646f3" x="201.256916" y="139.716961" style="fill: #d62728; fill-opacity: 0.939693; stroke: #d62728; stroke-opacity: 0.939693"/>
    </g>
    <g clip-path="url(#p07e55867a6)">
     <use xlink:href="#C1_0_368f6646f3" x="228.451394" y="140.903193" style="fill: #d62728; fill-opacity: 0.95696; stroke: #d62728; stroke-opacity: 0.95696"/>
    </g>
    <g clip-path="url(#p07e55867a6)">
     <use xlink:href="#C1_0_368f6646f3" x="215.481069" y="143.860021" style="fill: #d62728; stroke: #d62728"/>
    </g>
   </g>
  </g>
 </g>
 <defs>
  <clipPath id="p07e55867a6">
   <rect x="112.68" y="34.56" width="217.44" height="217.44"/>
  </clipPath>
 </defs>
</svg>
